<svg data-v-423bf9ae="" xmlns="http://www.w3.org/2000/svg" class="font" viewBox="-10 0 60 60"><!----><!----><defs data-v-423bf9ae=""><linearGradient data-v-423bf9ae="" gradientTransform="rotate(25)" id="1b072013-ee41-457b-98fd-bed55539bc7f" x1="0%" y1="0%" x2="100%" y2="0%"><stop data-v-423bf9ae="" offset="0%" style="stop-color: rgb(0, 125, 232); stop-opacity: 1;"></stop><stop data-v-423bf9ae="" offset="100%" style="stop-color: rgb(161, 195, 219); stop-opacity: 1;"></stop></linearGradient></defs><g data-v-423bf9ae="" id="d509ca1b-3afe-4000-98a1-dfc38476a068" fill="url(#1b072013-ee41-457b-98fd-bed55539bc7f)" transform="matrix(5.577908720429519,0,0,5.577908720429519,-6.247265338731495,-0.35296799372652643)"><path xmlns="http://www.w3.org/2000/svg" d="M2.06 10.18L2.06 10.18L2.06 0.81C2.06 0.56 1.85 0.35 1.58 0.35C1.33 0.35 1.12 0.56 1.12 0.81L1.12 10.18C1.12 10.43 1.33 10.64 1.58 10.64C1.85 10.64 2.06 10.43 2.06 10.18ZM5.99 9.90L5.99 9.90L3.84 6.83C3.58 6.45 3.00 6.64 3.00 7.11L3.00 10.18C3.00 10.43 3.21 10.64 3.46 10.64C3.72 10.64 3.92 10.43 3.92 10.18L3.92 8.58L5.22 10.44C5.38 10.65 5.66 10.70 5.87 10.56C6.09 10.40 6.13 10.12 5.99 9.90ZM5.22 0.55L5.22 0.55L3.92 2.41L3.92 0.81C3.92 0.56 3.72 0.35 3.46 0.35C3.21 0.35 3.00 0.56 3.00 0.81L3.00 3.86C3.00 4.03 3.05 4.17 3.19 4.27C3.40 4.42 3.70 4.37 3.84 4.16L5.99 1.08C6.13 0.87 6.09 0.59 5.87 0.43C5.66 0.28 5.38 0.34 5.22 0.55ZM7.50 0.55L7.50 0.55L4.24 5.22C4.13 5.39 4.13 5.61 4.24 5.77L7.50 10.44C7.66 10.65 7.94 10.70 8.15 10.56C8.37 10.40 8.41 10.12 8.27 9.90L5.19 5.49L8.27 1.08C8.41 0.87 8.37 0.59 8.15 0.43C7.94 0.28 7.66 0.34 7.50 0.55Z"/></g><!----><!----></svg>