<svg data-v-423bf9ae="" xmlns="http://www.w3.org/2000/svg" viewBox="0 0 329.6319485412047 60" class="font"><!----><!----><!----><g data-v-423bf9ae="" id="37564e2a-daa9-4c20-b01d-a5f90e5da73f" fill="black" transform="matrix(5.577908720429519,0,0,5.577908720429519,-6.247265338731495,-0.35296799372652643)"><path d="M2.06 10.18L2.06 10.18L2.06 0.81C2.06 0.56 1.85 0.35 1.58 0.35C1.33 0.35 1.12 0.56 1.12 0.81L1.12 10.18C1.12 10.43 1.33 10.64 1.58 10.64C1.85 10.64 2.06 10.43 2.06 10.18ZM5.99 9.90L5.99 9.90L3.84 6.83C3.58 6.45 3.00 6.64 3.00 7.11L3.00 10.18C3.00 10.43 3.21 10.64 3.46 10.64C3.72 10.64 3.92 10.43 3.92 10.18L3.92 8.58L5.22 10.44C5.38 10.65 5.66 10.70 5.87 10.56C6.09 10.40 6.13 10.12 5.99 9.90ZM5.22 0.55L5.22 0.55L3.92 2.41L3.92 0.81C3.92 0.56 3.72 0.35 3.46 0.35C3.21 0.35 3.00 0.56 3.00 0.81L3.00 3.86C3.00 4.03 3.05 4.17 3.19 4.27C3.40 4.42 3.70 4.37 3.84 4.16L5.99 1.08C6.13 0.87 6.09 0.59 5.87 0.43C5.66 0.28 5.38 0.34 5.22 0.55ZM7.50 0.55L7.50 0.55L4.24 5.22C4.13 5.39 4.13 5.61 4.24 5.77L7.50 10.44C7.66 10.65 7.94 10.70 8.15 10.56C8.37 10.40 8.41 10.12 8.27 9.90L5.19 5.49L8.27 1.08C8.41 0.87 8.37 0.59 8.15 0.43C7.94 0.28 7.66 0.34 7.50 0.55ZM19.82 3.88L19.82 3.88C19.47 2.77 18.77 1.83 17.86 1.16C16.95 0.52 15.86 0.14 14.66 0.14C7.56 0.14 7.56 10.82 14.66 10.82C15.86 10.82 16.95 10.43 17.86 9.79C18.77 9.13 19.47 8.18 19.82 7.08C19.89 6.83 19.77 6.55 19.52 6.48C19.26 6.41 18.98 6.54 18.91 6.79C18.62 7.70 18.06 8.47 17.29 9.02C16.56 9.55 15.65 9.86 14.66 9.86C8.82 9.86 8.82 1.09 14.66 1.09C15.65 1.09 16.56 1.41 17.29 1.93C18.06 2.49 18.62 3.26 18.91 4.16C18.98 4.41 19.26 4.55 19.52 4.47C19.77 4.40 19.89 4.13 19.82 3.88ZM11.77 7.17L11.77 7.17C12.07 7.69 12.49 8.12 12.99 8.43C13.50 8.71 14.07 8.88 14.66 8.88C15.60 8.88 16.44 8.50 17.05 7.87C17.64 7.25 18.02 6.41 18.02 5.47C18.02 4.54 17.64 3.70 17.05 3.08C16.44 2.46 15.60 2.09 14.66 2.09C14.07 2.09 13.50 2.24 12.99 2.53C12.49 2.83 12.07 3.26 11.77 3.78C11.63 4.02 11.72 4.31 11.94 4.44C12.18 4.56 12.46 4.48 12.59 4.24C12.81 3.88 13.12 3.57 13.48 3.36C13.83 3.15 14.22 3.04 14.66 3.04C15.33 3.04 15.93 3.32 16.35 3.75C16.80 4.19 17.07 4.80 17.07 5.47C17.07 6.16 16.80 6.78 16.35 7.21C15.93 7.66 15.33 7.92 14.66 7.92C14.22 7.92 13.82 7.80 13.48 7.59C13.12 7.39 12.81 7.07 12.59 6.71C12.46 6.47 12.18 6.40 11.94 6.52C11.72 6.66 11.63 6.93 11.77 7.17ZM31.88 3.88L31.88 3.88C31.53 2.77 30.83 1.83 29.92 1.16C29.01 0.52 27.92 0.14 26.71 0.14C19.61 0.14 19.61 10.82 26.71 10.82C27.92 10.82 29.01 10.43 29.92 9.79C30.83 9.13 31.53 8.18 31.88 7.08C31.95 6.83 31.82 6.55 31.57 6.48C31.32 6.41 31.04 6.54 30.97 6.79C30.67 7.70 30.11 8.47 29.34 9.02C28.62 9.55 27.71 9.86 26.71 9.86C20.87 9.86 20.87 1.09 26.71 1.09C27.71 1.09 28.62 1.41 29.34 1.93C30.11 2.49 30.67 3.26 30.97 4.16C31.04 4.41 31.32 4.55 31.57 4.47C31.82 4.40 31.95 4.13 31.88 3.88ZM23.83 7.17L23.83 7.17C24.12 7.69 24.54 8.12 25.05 8.43C25.55 8.71 26.12 8.88 26.71 8.88C27.65 8.88 28.49 8.50 29.11 7.87C29.69 7.25 30.07 6.41 30.07 5.47C30.07 4.54 29.69 3.70 29.11 3.08C28.49 2.46 27.65 2.09 26.71 2.09C26.12 2.09 25.55 2.24 25.05 2.53C24.54 2.83 24.12 3.26 23.83 3.78C23.69 4.02 23.77 4.31 24.00 4.44C24.23 4.56 24.51 4.48 24.64 4.24C24.86 3.88 25.17 3.57 25.54 3.36C25.89 3.15 26.28 3.04 26.71 3.04C27.38 3.04 27.99 3.32 28.41 3.75C28.85 4.19 29.12 4.80 29.12 5.47C29.12 6.16 28.85 6.78 28.41 7.21C27.99 7.66 27.38 7.92 26.71 7.92C26.28 7.92 25.87 7.80 25.54 7.59C25.17 7.39 24.86 7.07 24.64 6.71C24.51 6.47 24.23 6.40 24.00 6.52C23.77 6.66 23.69 6.93 23.83 7.17ZM37.04 8.78L37.04 8.78C38.96 8.78 40.24 7.34 40.24 5.49C40.24 3.65 38.96 2.21 37.04 2.21L36.12 2.21C35.87 2.21 35.66 2.42 35.66 2.69L35.66 6.43C35.66 6.69 35.87 6.90 36.12 6.90C36.39 6.90 36.58 6.69 36.58 6.43L36.58 3.15L37.04 3.15C38.43 3.15 39.31 4.17 39.31 5.49C39.31 6.82 38.43 7.84 37.04 7.84L36.12 7.84C35.87 7.84 35.66 8.05 35.66 8.30C35.66 8.57 35.87 8.78 36.12 8.78ZM34.72 10.18L34.72 10.18L34.72 1.29L37.04 1.29C39.55 1.29 41.26 3.05 41.26 5.49C41.26 7.94 39.55 9.70 37.04 9.70L36.11 9.70C35.85 9.70 35.64 9.91 35.64 10.18C35.64 10.43 35.85 10.64 36.11 10.64L37.04 10.64C40.08 10.64 42.20 8.46 42.20 5.49C42.20 2.53 40.08 0.35 37.04 0.35L34.24 0.35C33.99 0.35 33.78 0.56 33.78 0.81L33.78 10.18C33.78 10.43 33.99 10.64 34.24 10.64C34.51 10.64 34.72 10.43 34.72 10.18ZM46.45 7.84L46.45 7.84L47.81 7.84C48.08 7.84 48.30 7.63 48.30 7.36C48.30 7.29 48.29 7.24 48.26 7.18L47.57 5.50C47.47 5.28 47.21 5.17 46.96 5.26C46.73 5.35 46.62 5.63 46.70 5.87L47.12 6.90L46.45 6.90C46.20 6.90 45.99 7.10 45.99 7.36C45.99 7.63 46.20 7.84 46.45 7.84ZM45.77 10.26L45.77 10.26L46.00 9.72L48.27 9.72L48.50 10.26C48.59 10.51 48.87 10.61 49.11 10.53C49.35 10.42 49.45 10.15 49.36 9.91L49.03 9.10C48.97 8.92 48.79 8.76 48.58 8.76L45.68 8.76L45.68 8.76C45.51 8.76 45.33 8.89 45.25 9.06L44.91 9.91C44.81 10.15 44.93 10.42 45.16 10.53C45.42 10.61 45.68 10.50 45.77 10.26ZM43.76 10.26L43.76 10.26L47.14 1.76L50.51 10.26C50.61 10.50 50.89 10.61 51.13 10.53C51.37 10.42 51.48 10.15 51.38 9.91L47.57 0.36C47.53 0.25 47.45 0.14 47.31 0.10C47.08 0 46.80 0.11 46.70 0.36L42.88 9.91C42.80 10.15 42.92 10.42 43.15 10.53C43.39 10.61 43.65 10.50 43.76 10.26ZM56.83 5.03L56.83 5.03C57.60 5.03 58.24 4.42 58.24 3.64C58.24 2.93 57.68 2.21 56.83 2.21L55.16 2.21C54.54 2.21 54.54 3.15 55.16 3.15L56.83 3.15C57.09 3.15 57.32 3.35 57.32 3.63C57.32 4.17 56.80 4.10 56.36 4.10C55.61 4.10 55.64 4.98 56.36 5.03C56.52 5.04 56.70 5.03 56.83 5.03ZM57.69 9.90L57.69 9.90L55.55 6.83C55.29 6.48 54.70 6.62 54.70 7.13L54.70 10.18C54.70 10.79 55.64 10.79 55.64 10.18L55.64 8.58L56.92 10.44C57.29 10.95 58.04 10.40 57.69 9.90ZM53.76 10.18L53.76 10.18L53.76 1.29L56.98 1.29C57.61 1.29 58.18 1.54 58.60 1.96C60.05 3.42 59.04 5.96 56.98 5.96C56.63 5.96 56.35 6.37 56.63 6.73L59.22 10.44C59.56 10.95 60.33 10.40 59.98 9.90L57.81 6.79C58.37 6.65 58.87 6.34 59.28 5.94C61.29 3.86 59.85 0.35 56.98 0.35L53.30 0.35C53.05 0.35 52.82 0.56 52.82 0.81L52.82 10.18C52.82 10.79 53.76 10.79 53.76 10.18Z"></path></g><!----><!----></svg>